<?xml version="1.0" encoding="utf-8"?>
<!-- Designed by Vexels.com - 2016 All Rights Reserved - https://vexels.com/terms-and-conditions/  -->

<svg version="1.0" fill="#d72d2d" id="Capa_1" xmlns="http://www.w3.org/2000/svg" xmlns:xlink="http://www.w3.org/1999/xlink" x="0px" y="0px"
	 width="1200px" height="1200px" viewBox="0 0 1200 1200" enable-background="new 0 0 1200 1200" xml:space="preserve">
<g>
	<path d="M600,67.595C306.433,67.595,67.595,306.431,67.595,600S306.433,1132.405,600,1132.405
		c293.569,0,532.405-238.836,532.405-532.405S893.569,67.595,600,67.595z M1095.858,600c0,273.421-222.434,495.872-495.858,495.872
		c-273.421,0-495.87-222.451-495.87-495.872S326.579,104.144,600,104.144C873.423,104.144,1095.858,326.579,1095.858,600z"/>
	<g>
		<polygon points="647.632,727.693 660.442,288.471 539.575,288.471 552.37,727.693 		"/>
		<path d="M600,768.532c-39.346,0-69.008,30.739-69.008,71.498c0,40.762,29.662,71.498,69.008,71.498
			c39.983,0,69.01-30.065,69.01-71.498C669.01,798.597,639.983,768.532,600,768.532z"/>
	</g>
</g>
</svg>
